# xmcd CD database file
#
# Track frame offsets:
#	180
#	19510
#	34504
#	59839
#	84798
#	105145
#	116991
#	152159
#	169151
#	187833
#
# Disc length: 2977 seconds
#
# Revision: 1
# Processed by: cddbd v1.5.2PL0 Copyright (c) Steve Scherf et al.
# Submitted via: CDex 1.51
#
DISCID=6f0b9f0a
DTITLE=Darrell Mansfield - Mansfield and Co.
DYEAR=1995
DGENRE=Blues
TTITLE0=Crossroads
TTITLE1=Let's WorkTogether
TTITLE2=Heavy Load (Song For Jessica)
TTITLE3=Flyin' Free
TTITLE4=The Mission
TTITLE5=Boom Boom
TTITLE6=Spoonful
TTITLE7=Everybody's Business
TTITLE8=Starry Sea
TTITLE9=He Has Overcome
EXTD=YEAR: 1995
EXTT0=
EXTT1=
EXTT2=
EXTT3=
EXTT4=
EXTT5=
EXTT6=
EXTT7=
EXTT8=
EXTT9=
PLAYORDER=
